<svg xmlns="http://www.w3.org/2000/svg" width="160" height="56" viewBox="0 0 160 56">
  <g id="Group_42947" data-name="Group 42947" transform="translate(-3056 671)">
    <rect id="Rectangle_4476" data-name="Rectangle 4476" width="160" height="56" rx="8" transform="translate(3056 -671)" fill="#4ca667"/>
    <g id="Group_42946" data-name="Group 42946" transform="translate(3068.183 -659.53)">
      <g id="Group_42940" data-name="Group 42940" transform="translate(0 0)">
        <path id="Path_10237" data-name="Path 10237" d="M40.422,41.9a8.434,8.434,0,0,0-9.769-10.859,8.43,8.43,0,0,0-14.281,3.017,8.434,8.434,0,0,0-4.529,13.893,8.307,8.307,0,0,0,.71,6.828,8.413,8.413,0,0,0,9.059,4.031,8.329,8.329,0,0,0,6.27,2.8,8.413,8.413,0,0,0,8.02-5.848A8.408,8.408,0,0,0,40.422,41.9ZM27.881,59.423a6.226,6.226,0,0,1-4-1.445l.194-.11,6.642-3.837a1.115,1.115,0,0,0,.549-.946V43.713l2.806,1.622a.1.1,0,0,1,.051.076V53.17a6.259,6.259,0,0,1-6.245,6.253ZM14.453,53.685a6.2,6.2,0,0,1-.744-4.191l.194.118,6.651,3.837a1.076,1.076,0,0,0,1.082,0l8.121-4.682v3.245a.1.1,0,0,1-.042.085l-6.727,3.879A6.247,6.247,0,0,1,14.453,53.685ZM12.7,39.218a6.223,6.223,0,0,1,3.287-2.746v7.893a1.049,1.049,0,0,0,.541.938L24.6,49.967,21.8,51.589a.108.108,0,0,1-.1,0l-6.718-3.87a6.263,6.263,0,0,1-2.29-8.535v.034Zm23.078,5.358-8.113-4.707,2.806-1.614a.108.108,0,0,1,.1,0l6.718,3.879A6.246,6.246,0,0,1,36.34,53.4V45.5a1.122,1.122,0,0,0-.566-.93Zm2.789-4.2-.194-.118-6.634-3.87a1.092,1.092,0,0,0-1.09,0l-8.113,4.682V37.823a.086.086,0,0,1,.042-.085l6.718-3.87a6.253,6.253,0,0,1,9.287,6.473v.034ZM20.994,46.122l-2.806-1.614a.1.1,0,0,1-.051-.076V36.691a6.253,6.253,0,0,1,10.251-4.8l-.194.11-6.642,3.837a1.115,1.115,0,0,0-.549.946Zm1.521-3.287,3.617-2.087,3.625,2.087V47l-3.608,2.087L22.523,47l-.008-4.166Z" transform="translate(-9.671 -28.243)" fill="#fff" fill-rule="evenodd"/>
      </g>
      <g id="Group_42941" data-name="Group 42941" transform="translate(40.643 1.398)">
        <path id="Path_10238" data-name="Path 10238" d="M79.509,35.07a2.209,2.209,0,0,0-2.088,1l-.195.35v-1.18H75.58v7.184H77.3V38.156a1.425,1.425,0,0,1,1.517-1.608,1.378,1.378,0,0,1,1.452,1.569v4.318H82V37.819C82.024,36.094,81.091,35.07,79.509,35.07Z" transform="translate(-49.543 -32.49)" fill="#fff" fill-rule="evenodd"/>
        <path id="Path_10239" data-name="Path 10239" d="M76.1,39.4V38.208a2.968,2.968,0,0,0-3.19-3.138A3.075,3.075,0,0,0,69.6,38.389V39.4a3.029,3.029,0,0,0,3.332,3.19,3.124,3.124,0,0,0,2.943-1.543L74.8,40.438a2.418,2.418,0,0,1-1.867.973,1.558,1.558,0,0,1-1.66-1.725V39.4Zm-4.824-1.336c0-1.18.584-1.828,1.634-1.828a1.542,1.542,0,0,1,1.621,1.725v.285H71.273Z" transform="translate(-51.317 -32.49)" fill="#fff" fill-rule="evenodd"/>
        <path id="Path_10240" data-name="Path 10240" d="M95.148,34.6V33.23H89.17V34.6h2.1v6.989h-2.1v1.374h5.978V41.593h-2.1V34.6Z" transform="translate(-45.511 -33.036)" fill="#fff" fill-rule="evenodd"/>
        <path id="Path_10241" data-name="Path 10241" d="M59.831,33.08A4.022,4.022,0,0,0,55.5,37.424v1.452a4.022,4.022,0,0,0,4.331,4.344,4.022,4.022,0,0,0,4.331-4.344V37.424A4.022,4.022,0,0,0,59.831,33.08Zm0,8.688c-1.621,0-2.541-1.024-2.541-2.8V37.32c0-1.776.921-2.8,2.541-2.8s2.541,1.024,2.541,2.8v1.647C62.372,40.743,61.452,41.768,59.831,41.768Z" transform="translate(-55.5 -33.08)" fill="#fff" fill-rule="evenodd"/>
        <path id="Path_10242" data-name="Path 10242" d="M67.259,35.07h0a2.446,2.446,0,0,0-2.1,1.011l-.182.285V35.239H63.33v9.647h1.725V41.4l.182.272a2.427,2.427,0,0,0,2.036.921,2.91,2.91,0,0,0,3-3.151V38.221A2.921,2.921,0,0,0,67.259,35.07Zm1.284,4.292a1.7,1.7,0,0,1-1.763,1.88A1.715,1.715,0,0,1,65.055,39.4V38.325a1.736,1.736,0,0,1,1.738-1.88,1.685,1.685,0,0,1,1.751,1.88Z" transform="translate(-53.177 -32.49)" fill="#fff" fill-rule="evenodd"/>
        <path id="Path_10243" data-name="Path 10243" d="M86.905,33.23H85.038L81.55,42.955H83.3l.661-2.088h4.007l.013.026.661,2.062h1.751ZM84.39,39.506l1.569-4.927,1.556,4.914Z" transform="translate(-47.772 -33.036)" fill="#fff" fill-rule="evenodd"/>
      </g>
      <g id="Group_42944" data-name="Group 42944" transform="translate(40.758 16.433)">
        <g id="Group_42942" data-name="Group 42942" transform="translate(0 0)">
          <path id="Path_10244" data-name="Path 10244" d="M65.865,59.561a5.383,5.383,0,0,1-3.741,1.247,5.066,5.066,0,0,1-2.868-.816,5.344,5.344,0,0,1-1.916-2.3,8.146,8.146,0,0,1-.68-3.435V52.442a8.146,8.146,0,0,1,.68-3.435,5.126,5.126,0,0,1,4.874-3.117,5.916,5.916,0,0,1,2.664.555,4.415,4.415,0,0,1,1.791,1.621,5.886,5.886,0,0,1,.8,2.562H66.25c-.317-2.46-1.655-3.7-4.036-3.7a3.911,3.911,0,0,0-2.3.68,4.4,4.4,0,0,0-1.5,1.916,7.332,7.332,0,0,0-.521,2.879v1.836a7.736,7.736,0,0,0,.5,2.857,4.377,4.377,0,0,0,1.451,1.961,3.765,3.765,0,0,0,2.29.7,4.085,4.085,0,0,0,2.879-.918,4.408,4.408,0,0,0,1.224-2.777h1.224A5.188,5.188,0,0,1,65.865,59.561Z" transform="translate(-56.66 -45.278)" fill="#fff"/>
          <path id="Path_10245" data-name="Path 10245" d="M74.636,50.632a4.317,4.317,0,0,1,.884,3.015v7.028h-1.2V53.648a3.225,3.225,0,0,0-.646-2.267,2.534,2.534,0,0,0-1.893-.669,2.861,2.861,0,0,0-2,.737,4.313,4.313,0,0,0-1.213,1.825v7.414h-1.2V45.35h1.2v6.337a4.395,4.395,0,0,1,1.485-1.474,3.958,3.958,0,0,1,2.029-.533A3.31,3.31,0,0,1,74.636,50.632Z" transform="translate(-55.229 -45.35)" fill="#fff"/>
          <path id="Path_10246" data-name="Path 10246" d="M83.99,59.089a3.489,3.489,0,0,0,.249.952v.125H82.958a5.57,5.57,0,0,1-.238-1.508A4.421,4.421,0,0,1,81.2,59.894a4.61,4.61,0,0,1-2.131.476,4.044,4.044,0,0,1-1.825-.4,2.873,2.873,0,0,1-1.655-2.664,2.91,2.91,0,0,1,.589-1.825,3.832,3.832,0,0,1,1.7-1.19,7.336,7.336,0,0,1,2.619-.419h2.2V52.661a2.325,2.325,0,0,0-.726-1.825,2.952,2.952,0,0,0-2.063-.669,3.693,3.693,0,0,0-1.485.295,2.583,2.583,0,0,0-1.043.794,1.791,1.791,0,0,0-.374,1.1l-1.2-.011a2.593,2.593,0,0,1,.533-1.542,3.76,3.76,0,0,1,1.474-1.179,5.363,5.363,0,0,1,4.183-.057,3.063,3.063,0,0,1,1.383,1.179,3.569,3.569,0,0,1,.5,1.938V57.9C83.9,58.3,83.933,58.692,83.99,59.089Zm-2.619-.374a3.4,3.4,0,0,0,1.338-1.53V54.8h-2.04a6.628,6.628,0,0,0-2.086.283,2.907,2.907,0,0,0-1.338.827,1.944,1.944,0,0,0-.465,1.292,2.008,2.008,0,0,0,.295,1.066,2.138,2.138,0,0,0,.85.76,2.844,2.844,0,0,0,1.281.283A4.056,4.056,0,0,0,81.371,58.715Z" transform="translate(-54.132 -44.84)" fill="#fff"/>
          <path id="Path_10247" data-name="Path 10247" d="M88.97,60.5a2.6,2.6,0,0,1-.567.113,5.036,5.036,0,0,1-.714.045,2.274,2.274,0,0,1-1.734-.646,3.135,3.135,0,0,1-.612-2.188V50.641H83.37v-.975h1.972V46.9h1.2v2.777h2.222v.975H86.544v7.187a2.024,2.024,0,0,0,.374,1.417,1.379,1.379,0,0,0,1.02.374,5.337,5.337,0,0,0,.975-.113Z" transform="translate(-53.092 -45.143)" fill="#fff"/>
          <path id="Path_10248" data-name="Path 10248" d="M98.961,59.745a5.722,5.722,0,0,1-1.666.748,8.7,8.7,0,0,1-2.448.306,5.657,5.657,0,0,1-3.027-.816,5.5,5.5,0,0,1-2.063-2.324,7.962,7.962,0,0,1-.737-3.5V52.388a8.181,8.181,0,0,1,.68-3.457,5.178,5.178,0,0,1,1.95-2.267,5.488,5.488,0,0,1,2.993-.794,6.106,6.106,0,0,1,2.687.544,4.234,4.234,0,0,1,1.746,1.519,5.166,5.166,0,0,1,.793,2.222H98.644a3.632,3.632,0,0,0-4-3.242,4.09,4.09,0,0,0-2.38.68,4.214,4.214,0,0,0-1.5,1.9,7.465,7.465,0,0,0-.51,2.879v1.791a7.232,7.232,0,0,0,.567,2.947,4.468,4.468,0,0,0,1.61,1.961,4.222,4.222,0,0,0,2.415.691,7.265,7.265,0,0,0,1.814-.2,5.136,5.136,0,0,0,1.281-.487,2.773,2.773,0,0,0,.737-.578V54.746h-3.9V53.7h5.112v5.169A4.114,4.114,0,0,1,98.961,59.745Z" transform="translate(-52.338 -45.281)" fill="#fff"/>
          <path id="Path_10249" data-name="Path 10249" d="M108.1,46.594a3.787,3.787,0,0,1,1.655,1.519,4.929,4.929,0,0,1,.011,4.568,3.668,3.668,0,0,1-1.655,1.462,6.328,6.328,0,0,1-2.675.51h-3.718v5.917H100.49V46.05h4.954A5.885,5.885,0,0,1,108.1,46.594Zm.091,6.144a3.108,3.108,0,0,0,.907-2.324,3.507,3.507,0,0,0-.385-1.666,2.86,2.86,0,0,0-1.213-1.19,4.31,4.31,0,0,0-2.063-.442h-3.718v6.518h3.718A3.846,3.846,0,0,0,108.187,52.738Z" transform="translate(-50.806 -45.256)" fill="#fff"/>
          <path id="Path_10250" data-name="Path 10250" d="M120.386,47.1h-4.976V60.581H114.2V47.1H109.22V46.06h11.166Z" transform="translate(-49.64 -45.255)" fill="#fff"/>
        </g>
        <g id="Group_42943" data-name="Group 42943" transform="translate(71.823 0.612)">
          <path id="Path_10251" data-name="Path 10251" d="M130.642,57.454h-1.6v3.117h-3.015V57.454h-5.861l-.147-1.9,6-9.5h3.027v8.978h1.6Zm-4.6-2.415v-4.9l-.2.351-2.868,4.546h3.072Z" transform="translate(-120.02 -45.869)" fill="#fff"/>
          <path id="Path_10252" data-name="Path 10252" d="M132.343,56.355a1.41,1.41,0,0,1,.6.578,1.646,1.646,0,0,1,.2.816,1.677,1.677,0,0,1-.2.816,1.554,1.554,0,0,1-.6.578,2.018,2.018,0,0,1-1.768,0,1.382,1.382,0,0,1-.59-.578,1.622,1.622,0,0,1-.215-.816,1.57,1.57,0,0,1,.215-.816,1.6,1.6,0,0,1,.59-.578,1.733,1.733,0,0,1,.884-.215A2.035,2.035,0,0,1,132.343,56.355Z" transform="translate(-118.718 -44.521)" fill="#fff"/>
          <path id="Path_10253" data-name="Path 10253" d="M142.875,58.1a4.336,4.336,0,0,1-1.712,2.04,5.521,5.521,0,0,1-5.226,0A4.44,4.44,0,0,1,134.2,58.1a8.574,8.574,0,0,1-.623-3.48V52.045a8.564,8.564,0,0,1,.612-3.469,4.271,4.271,0,0,1,1.723-2.029,5.1,5.1,0,0,1,2.619-.657,5.02,5.02,0,0,1,2.618.657,4.317,4.317,0,0,1,1.723,2.029,8.564,8.564,0,0,1,.612,3.469v2.573A8.659,8.659,0,0,1,142.875,58.1Zm-2.891-9.023a1.751,1.751,0,0,0-2.9,0,5,5,0,0,0-.487,2.562v3.378a4.935,4.935,0,0,0,.5,2.585,1.618,1.618,0,0,0,1.462.782A1.581,1.581,0,0,0,140,57.6a5.213,5.213,0,0,0,.476-2.585V51.637A4.973,4.973,0,0,0,139.985,49.075Z" transform="translate(-118.209 -45.89)" fill="#fff"/>
        </g>
      </g>
    </g>
  </g>
</svg>
